<svg width="500" height="500" viewBox="0 0 500 500" fill="none" xmlns="http://www.w3.org/2000/svg">
<rect width="500" height="500" fill="#1E1E1E"/>
<g clip-path="url(#clip0_0_1)">
<rect width="500" height="500" rx="61" fill="url(#paint0_linear_0_1)"/>
<g filter="url(#filter0_b_0_1)">
<rect width="500" height="500" rx="61" fill="white" fill-opacity="0.22"/>
<rect x="0.5" y="0.5" width="499" height="499" rx="60.5" stroke="white" stroke-opacity="0.22"/>
</g>
<path d="M192.974 340.464L209.04 337.6L299.592 207.748L280.662 194.548L190.11 324.399L192.974 340.464ZM174.447 367.033L165.904 319.119L288.235 144.051C290.121 141.582 292.326 139.541 294.849 137.928C297.373 136.315 300.138 135.24 303.144 134.704C306.15 134.168 309.163 134.213 312.183 134.837C315.202 135.462 317.947 136.718 320.415 138.604L338.731 151.623C341.355 153.288 343.434 155.438 344.97 158.072C346.506 160.706 347.525 163.433 348.028 166.251C348.564 169.257 348.558 172.215 348.011 175.124C347.463 178.032 346.263 180.815 344.41 183.472L222.361 358.489L174.447 367.033ZM290.011 201.314L280.662 194.548L299.592 207.748L290.011 201.314Z" fill="#2A2A2A"/>
<g filter="url(#filter1_bd_0_1)">
<rect x="213.287" y="-239" width="751.389" height="332.791" transform="rotate(44.0265 213.287 -239)" fill="white" fill-opacity="0.22" shape-rendering="crispEdges"/>
<rect x="213.299" y="-238.293" width="750.389" height="331.791" transform="rotate(44.0265 213.299 -238.293)" stroke="white" stroke-opacity="0.22" shape-rendering="crispEdges"/>
</g>
</g>
<defs>
<filter id="filter0_b_0_1" x="-11.4" y="-11.4" width="522.8" height="522.8" filterUnits="userSpaceOnUse" color-interpolation-filters="sRGB">
<feFlood flood-opacity="0" result="BackgroundImageFix"/>
<feGaussianBlur in="BackgroundImageFix" stdDeviation="5.7"/>
<feComposite in2="SourceAlpha" operator="in" result="effect1_backgroundBlur_0_1"/>
<feBlend mode="normal" in="SourceGraphic" in2="effect1_backgroundBlur_0_1" result="shape"/>
</filter>
<filter id="filter1_bd_0_1" x="-29.4" y="-250.4" width="794.349" height="793.192" filterUnits="userSpaceOnUse" color-interpolation-filters="sRGB">
<feFlood flood-opacity="0" result="BackgroundImageFix"/>
<feGaussianBlur in="BackgroundImageFix" stdDeviation="5.7"/>
<feComposite in2="SourceAlpha" operator="in" result="effect1_backgroundBlur_0_1"/>
<feColorMatrix in="SourceAlpha" type="matrix" values="0 0 0 0 0 0 0 0 0 0 0 0 0 0 0 0 0 0 127 0" result="hardAlpha"/>
<feOffset dy="9"/>
<feGaussianBlur stdDeviation="5.65"/>
<feComposite in2="hardAlpha" operator="out"/>
<feColorMatrix type="matrix" values="0 0 0 0 0 0 0 0 0 0 0 0 0 0 0 0 0 0 0.1 0"/>
<feBlend mode="normal" in2="effect1_backgroundBlur_0_1" result="effect2_dropShadow_0_1"/>
<feBlend mode="normal" in="SourceGraphic" in2="effect2_dropShadow_0_1" result="shape"/>
</filter>
<linearGradient id="paint0_linear_0_1" x1="-1.00583e-07" y1="250" x2="500" y2="250" gradientUnits="userSpaceOnUse">
<stop stop-color="#6DCBCB"/>
<stop offset="1" stop-color="#A0CBCB"/>
</linearGradient>
<clipPath id="clip0_0_1">
<rect width="500" height="500" rx="61" fill="white"/>
</clipPath>
</defs>
</svg>
